<?xml version="1.0" encoding="UTF-8" standalone="no"?>
<svg
   version="1.1"
   x="0px"
   y="0px"
   viewBox="0 0 100 100"
   enable-background="new 0 0 100 100"
   xml:space="preserve"
   id="svg1718"
   sodipodi:docname="logo.svg"
   inkscape:version="1.1.2 (08b2f3d93c, 2022-04-05)"
   xmlns:inkscape="http://www.inkscape.org/namespaces/inkscape"
   xmlns:sodipodi="http://sodipodi.sourceforge.net/DTD/sodipodi-0.dtd"
   xmlns="http://www.w3.org/2000/svg"
   xmlns:svg="http://www.w3.org/2000/svg"><defs
     id="defs1722" /><sodipodi:namedview
     id="namedview1720"
     pagecolor="#ffffff"
     bordercolor="#666666"
     borderopacity="1.0"
     inkscape:pageshadow="2"
     inkscape:pageopacity="0.0"
     inkscape:pagecheckerboard="0"
     showgrid="false"
     inkscape:zoom="3.76"
     inkscape:cx="9.0425532"
     inkscape:cy="55.452128"
     inkscape:window-width="1920"
     inkscape:window-height="941"
     inkscape:window-x="980"
     inkscape:window-y="34"
     inkscape:window-maximized="1"
     inkscape:current-layer="svg1718" /><g
     id="g1982"
     inkscape:label="Logo"><circle
       style="fill:#f9f9f9;stroke-width:9.3;stroke-linecap:square"
       id="path1803"
       cx="50.192455"
       cy="50.36805"
       r="50"
       inkscape:label="Background" /><path
       d="m 50,42.8756 c -3.9348,0 -7.1244,3.1896 -7.1244,7.1244 0,3.429 2.4237,6.291 5.6511,6.9696 V 94.9622 C 49.0172,94.9784 49.5059,95 50,95 c 0.4941,0 0.9828,-0.0216 1.4733,-0.0369 V 56.9696 C 54.7007,56.291 57.1244,53.429 57.1244,50 57.1244,46.0652 53.9348,42.8756 50,42.8756 Z"
       id="path1714"
       style="fill:#1a1a1a;stroke-width:0.9"
       inkscape:label="Pen Tip" /><path
       d="M 95,50 C 95,25.1474 74.8526,5 50,5 25.1474,5 5,25.1474 5,50 5,73.3586 22.7993,92.5565 45.5738,94.7813 v 0 l 9e-4,-0.0081 v 0 C 45.4622,76.4834 34.4372,62.357 29.8634,57.2783 v -0.0018 c 0,0 -1.8783,-2.2527 -0.8145,-4.9527 l 8.3304,-21.1284 c 0,0 1.5417,-3.906 4.9653,-3.906 H 50 57.6554 c 3.4245,0 4.9653,3.906 4.9653,3.906 l 8.3304,21.1284 c 1.0647,2.7 -0.8145,4.9527 -0.8145,4.9527 v 0.0018 C 65.5628,62.3579 54.5378,76.4834 54.4262,94.7732 l 9e-4,0.0081 C 77.2016,92.5565 95,73.3586 95,50 Z"
       id="path1716"
       style="display:inline;fill:#1a1a1a;stroke-width:0.9"
       inkscape:label="Foreground" /></g></svg>
