<?xml version="1.0" standalone="no"?>
<!DOCTYPE svg PUBLIC "-//W3C//DTD SVG 20010904//EN"
 "http://www.w3.org/TR/2001/REC-SVG-20010904/DTD/svg10.dtd">
<svg version="1.0" xmlns="http://www.w3.org/2000/svg"
 width="512.000000pt" height="512.000000pt" viewBox="0 0 512.000000 512.000000"
 preserveAspectRatio="xMidYMid meet">
<metadata>
Created by potrace 1.14, written by Peter Selinger 2001-2017
</metadata>
<g transform="translate(0.000000,512.000000) scale(0.100000,-0.100000)"
fill="#000000" stroke="none">
<path d="M2265 4845 c-491 -65 -947 -285 -1303 -629 -202 -196 -344 -390 -468
-641 -159 -324 -234 -648 -234 -1017 0 -780 380 -1486 1035 -1921 280 -187
651 -324 979 -363 l59 -7 -6 129 c-28 570 -311 1226 -748 1734 -81 95 -103
141 -104 220 0 62 11 94 224 630 123 310 234 580 246 600 13 19 40 52 61 72
72 69 63 68 556 68 411 0 446 -2 483 -19 52 -24 117 -93 148 -156 14 -27 121
-293 238 -590 203 -512 214 -543 214 -605 -1 -83 -20 -119 -128 -248 -431
-516 -697 -1143 -724 -1706 l-6 -129 59 7 c233 28 505 110 729 220 256 127
445 265 642 470 351 365 562 804 628 1309 19 152 19 422 0 574 -67 505 -280
950 -629 1311 -197 203 -392 345 -641 468 -240 118 -473 187 -734 220 -141 17
-439 17 -576 -1z"/>
<path d="M2438 2903 c-102 -39 -184 -121 -220 -221 -23 -62 -23 -182 0 -244
36 -100 129 -193 220 -220 l42 -12 0 -973 0 -973 80 0 80 0 0 975 c0 863 2
975 15 975 28 0 104 41 148 80 24 21 59 67 78 102 33 60 34 67 34 168 0 91 -3
112 -25 155 -31 65 -111 144 -175 175 -68 32 -208 39 -277 13z"/>
</g>
</svg>
