<svg version="1.0" viewBox="0 0 512 512"><path d="M226.5 27.5C177.4 34 131.8 56 96.2 90.4c-20.2 19.6-34.4 39-46.8 64.1C33.5 186.9 26 219.3 26 256.2c0 78 38 148.6 103.5 192.1 28 18.7 65.1 32.4 97.9 36.3l5.9.7-.6-12.9c-2.8-57-31.1-122.6-74.8-173.4-8.1-9.5-10.3-14.1-10.4-22 0-6.2 1.1-9.4 22.4-63 12.3-31 23.4-58 24.6-60 1.3-1.9 4-5.2 6.1-7.2 7.2-6.9 6.3-6.8 55.6-6.8 41.1 0 44.6.2 48.3 1.9 5.2 2.4 11.7 9.3 14.8 15.6 1.4 2.7 12.1 29.3 23.8 59 20.3 51.2 21.4 54.3 21.4 60.5-.1 8.3-2 11.9-12.8 24.8-43.1 51.6-69.7 114.3-72.4 170.6l-.6 12.9 5.9-.7c23.3-2.8 50.5-11 72.9-22 25.6-12.7 44.5-26.5 64.2-47 35.1-36.5 56.2-80.4 62.8-130.9 1.9-15.2 1.9-42.2 0-57.4-6.7-50.5-28-95-62.9-131.1-19.7-20.3-39.2-34.5-64.1-46.8-24-11.8-47.3-18.7-73.4-22-14.1-1.7-43.9-1.7-57.6.1z"/><path d="M243.8 221.7c-10.2 3.9-18.4 12.1-22 22.1-2.3 6.2-2.3 18.2 0 24.4 3.6 10 12.9 19.3 22 22l4.2 1.2V486h16v-97.5c0-86.3.2-97.5 1.5-97.5 2.8 0 10.4-4.1 14.8-8 2.4-2.1 5.9-6.7 7.8-10.2 3.3-6 3.4-6.7 3.4-16.8 0-9.1-.3-11.2-2.5-15.5-3.1-6.5-11.1-14.4-17.5-17.5-6.8-3.2-20.8-3.9-27.7-1.3z"/></svg>