<?xml version="1.0" encoding="UTF-8" standalone="no"?>
<svg
   viewBox="0 0 69.800003 23.31004"
   height="23.31004mm"
   width="69.800003mm"
   version="1.1"
   id="svg17760"
   sodipodi:docname="Flattening.svg"
   inkscape:version="1.1.2 (76b9e6a115, 2022-02-25)"
   xmlns:inkscape="http://www.inkscape.org/namespaces/inkscape"
   xmlns:sodipodi="http://sodipodi.sourceforge.net/DTD/sodipodi-0.dtd"
   xmlns="http://www.w3.org/2000/svg"
   xmlns:svg="http://www.w3.org/2000/svg">
  <defs
     id="defs17764" />
  <sodipodi:namedview
     id="namedview17762"
     pagecolor="#ffffff"
     bordercolor="#666666"
     borderopacity="1.0"
     inkscape:pageshadow="2"
     inkscape:pageopacity="0.0"
     inkscape:pagecheckerboard="0"
     inkscape:document-units="mm"
     showgrid="false"
     fit-margin-top="0"
     fit-margin-left="0"
     fit-margin-right="0"
     fit-margin-bottom="0"
     inkscape:zoom="1.7109722"
     inkscape:cx="86.500528"
     inkscape:cy="61.660849"
     inkscape:window-width="1920"
     inkscape:window-height="975"
     inkscape:window-x="0"
     inkscape:window-y="1080"
     inkscape:window-maximized="1"
     inkscape:current-layer="svg17760" />
  <path
     d="m 1.6,21.52004 0.82,-11.15 m 16.94,-8.6899998 -10.66,2.24"
     fill="none"
     stroke="#55d400"
     stroke-width="0.5"
     id="path17712" />
  <path
     d="M 1.6,21.52004 C 2.57,10.39004 8.77,3.9200402 19.36,1.6800402 m 30.81,19.8399998 1.13,-5.5 2.67,-5.48 4,-4.4199998 4.93,-2.84 5.02,-1.6"
     fill="none"
     stroke="#000000"
     id="path17714" />
  <path
     d="m 52.47,15.95004 a 1.1,1.1 0 0 1 -1.08,1.08 1.1,1.1 0 0 1 -1.1,-1.08 1.1,1.1 0 0 1 1.08,-1.1 1.1,1.1 0 0 1 1.1,1.1"
     color="#000000"
     fill="none"
     stroke="#030303"
     stroke-linecap="round"
     stroke-opacity="0.5"
     id="path17716" />
  <path
     d="m 52.47,15.95004 a 1.1,1.1 0 0 1 -1.08,1.08 1.1,1.1 0 0 1 -1.1,-1.08 1.1,1.1 0 0 1 1.08,-1.1 1.1,1.1 0 0 1 1.1,1.1"
     color="#000000"
     fill="#ffffff"
     id="path17718" />
  <path
     d="m 55.12,10.51004 a 1.1,1.1 0 0 1 -1.1,1.1 1.1,1.1 0 0 1 -1.08,-1.1 1.1,1.1 0 0 1 1.1,-1.0799998 1.1,1.1 0 0 1 1.08,1.0799998"
     color="#000000"
     fill="none"
     stroke="#030303"
     stroke-linecap="round"
     stroke-opacity="0.5"
     id="path17720" />
  <path
     d="m 55.12,10.51004 a 1.1,1.1 0 0 1 -1.1,1.1 1.1,1.1 0 0 1 -1.08,-1.1 1.1,1.1 0 0 1 1.1,-1.0799998 1.1,1.1 0 0 1 1.08,1.0799998"
     color="#000000"
     fill="#ffffff"
     id="path17722" />
  <path
     d="m 58.98,6.1300402 a 1.1,1.1 0 0 1 -1.08,1.1 1.1,1.1 0 0 1 -1.1,-1.1 1.1,1.1 0 0 1 1.1,-1.1 1.1,1.1 0 0 1 1.08,1.1"
     color="#000000"
     fill="none"
     stroke="#030303"
     stroke-linecap="round"
     stroke-opacity="0.5"
     id="path17724" />
  <path
     d="m 58.98,6.1300402 a 1.1,1.1 0 0 1 -1.08,1.1 1.1,1.1 0 0 1 -1.1,-1.1 1.1,1.1 0 0 1 1.1,-1.1 1.1,1.1 0 0 1 1.08,1.1"
     color="#000000"
     fill="#ffffff"
     id="path17726" />
  <path
     d="m 64,3.2400402 a 1.1,1.1 0 0 1 -1.08,1.1 1.1,1.1 0 0 1 -1.08,-1.1 1.1,1.1 0 0 1 1.08,-1.08 1.1,1.1 0 0 1 1.1,1.08"
     color="#000000"
     fill="none"
     stroke="#030303"
     stroke-linecap="round"
     stroke-opacity="0.5"
     id="path17728" />
  <path
     d="m 64,3.2400402 a 1.1,1.1 0 0 1 -1.08,1.1 1.1,1.1 0 0 1 -1.08,-1.1 1.1,1.1 0 0 1 1.08,-1.08 1.1,1.1 0 0 1 1.1,1.08"
     color="#000000"
     fill="#ffffff"
     id="path17730" />
  <path
     d="m 69.3,1.5800402 a 1.1,1.1 0 0 1 -1.1,1.1 1.1,1.1 0 0 1 -1.07,-1.1 1.1,1.1 0 0 1 1.08,-1.07999998 1.1,1.1 0 0 1 1.09,1.07999998"
     color="#000000"
     fill="none"
     stroke="#030303"
     stroke-linecap="round"
     stroke-opacity="0.5"
     id="path17732" />
  <path
     d="m 69.3,1.5800402 a 1.1,1.1 0 0 1 -1.1,1.1 1.1,1.1 0 0 1 -1.07,-1.1 1.1,1.1 0 0 1 1.08,-1.07999998 1.1,1.1 0 0 1 1.09,1.07999998"
     color="#000000"
     fill="#ffffff"
     id="path17734" />
  <path
     d="m 51.34,21.71004 a 1.1,1.1 0 0 1 -1.1,1.1 1.1,1.1 0 0 1 -1.08,-1.1 1.1,1.1 0 0 1 1.1,-1.1 1.1,1.1 0 0 1 1.08,1.1"
     color="#000000"
     fill="none"
     stroke="#030303"
     stroke-linecap="round"
     stroke-opacity="0.5"
     id="path17736" />
  <path
     d="m 51.34,21.71004 a 1.1,1.1 0 0 1 -1.1,1.1 1.1,1.1 0 0 1 -1.08,-1.1 1.1,1.1 0 0 1 1.1,-1.1 1.1,1.1 0 0 1 1.08,1.1"
     color="#000000"
     fill="#ffffff"
     id="path17738" />
  <path
     d="m 2.68,21.48004 a 1.1,1.1 0 0 1 -1.08,1.08 1.1,1.1 0 0 1 -1.1,-1.08 1.1,1.1 0 0 1 1.1,-1.1 1.1,1.1 0 0 1 1.08,1.1"
     color="#000000"
     fill="none"
     stroke="#030303"
     stroke-linecap="round"
     stroke-opacity="0.5"
     id="path17740" />
  <path
     d="m 2.68,21.48004 a 1.1,1.1 0 0 1 -1.08,1.08 1.1,1.1 0 0 1 -1.1,-1.08 1.1,1.1 0 0 1 1.1,-1.1 1.1,1.1 0 0 1 1.08,1.1"
     color="#000000"
     fill="#ffffff"
     id="path17742" />
  <path
     d="m 20.3,1.7200402 a 1.1,1.1 0 0 1 -1.08,1.1 1.1,1.1 0 0 1 -1.1,-1.1 1.1,1.1 0 0 1 1.1,-1.07999998 1.1,1.1 0 0 1 1.1,1.07999998"
     color="#000000"
     fill="none"
     stroke="#030303"
     stroke-linecap="round"
     stroke-opacity="0.5"
     id="path17744" />
  <path
     d="m 20.3,1.7200402 a 1.1,1.1 0 0 1 -1.08,1.1 1.1,1.1 0 0 1 -1.1,-1.1 1.1,1.1 0 0 1 1.1,-1.07999998 1.1,1.1 0 0 1 1.1,1.07999998"
     color="#000000"
     fill="#ffffff"
     id="path17746" />
  <path
     d="m 3.57,10.38004 a 1.1,1.1 0 0 1 -1.1,1.08 1.1,1.1 0 0 1 -1.08,-1.08 1.1,1.1 0 0 1 1.08,-1.0999998 1.1,1.1 0 0 1 1.1,1.0999998"
     color="#000000"
     fill="none"
     stroke="#030303"
     stroke-linecap="round"
     stroke-opacity="0.5"
     id="path17748" />
  <path
     d="m 3.57,10.38004 a 1.1,1.1 0 0 1 -1.1,1.08 1.1,1.1 0 0 1 -1.08,-1.08 1.1,1.1 0 0 1 1.08,-1.0999998 1.1,1.1 0 0 1 1.1,1.0999998"
     color="#000000"
     fill="#ffffff"
     id="path17750" />
  <path
     d="m 9.9,3.9000402 a 1.1,1.1 0 0 1 -1.1,1.1 1.1,1.1 0 0 1 -1.08,-1.1 1.1,1.1 0 0 1 1.1,-1.1 1.1,1.1 0 0 1 1.08,1.11"
     color="#000000"
     fill="none"
     stroke="#030303"
     stroke-linecap="round"
     stroke-opacity="0.5"
     id="path17752" />
  <path
     d="m 9.9,3.9000402 a 1.1,1.1 0 0 1 -1.1,1.1 1.1,1.1 0 0 1 -1.08,-1.1 1.1,1.1 0 0 1 1.1,-1.1 1.1,1.1 0 0 1 1.08,1.11"
     color="#000000"
     fill="#ffffff"
     id="path17754" />
  <text
     style="line-height:6.61458px"
     x="30.235003"
     y="14.07003"
     font-size="5.29px"
     font-family="Sans"
     letter-spacing="0"
     word-spacing="0"
     fill="#b3b3b3"
     stroke-width="0.26"
     id="text17758"><tspan
       x="30.235003"
       y="14.07003"
       font-size="10.58px"
       id="tspan17756">→</tspan></text>
</svg>
