<svg width="310" height="217" viewBox="0 0 310 217" fill="none" xmlns="http://www.w3.org/2000/svg">
<rect x="77" y="188" width="233" height="29" rx="10" fill="#D9D9D9"/>
<path d="M187.523 201C187.429 200.713 187.305 200.456 187.152 200.229C187.001 199.999 186.821 199.803 186.611 199.641C186.403 199.479 186.168 199.355 185.903 199.27C185.639 199.185 185.349 199.142 185.034 199.142C184.517 199.142 184.047 199.276 183.624 199.543C183.2 199.81 182.864 200.203 182.614 200.723C182.364 201.243 182.239 201.881 182.239 202.636C182.239 203.392 182.365 204.03 182.618 204.55C182.871 205.07 183.213 205.463 183.645 205.73C184.077 205.997 184.563 206.131 185.102 206.131C185.602 206.131 186.043 206.024 186.423 205.811C186.807 205.595 187.105 205.291 187.318 204.899C187.534 204.504 187.642 204.04 187.642 203.506L187.966 203.574H185.341V202.636H188.665V203.574C188.665 204.293 188.511 204.918 188.205 205.449C187.901 205.98 187.48 206.392 186.943 206.685C186.409 206.974 185.795 207.119 185.102 207.119C184.33 207.119 183.651 206.938 183.065 206.574C182.483 206.21 182.028 205.693 181.702 205.023C181.378 204.352 181.216 203.557 181.216 202.636C181.216 201.946 181.308 201.325 181.493 200.774C181.68 200.22 181.945 199.749 182.286 199.359C182.626 198.97 183.03 198.672 183.496 198.464C183.962 198.257 184.474 198.153 185.034 198.153C185.494 198.153 185.923 198.223 186.321 198.362C186.722 198.499 187.078 198.693 187.391 198.946C187.706 199.196 187.969 199.496 188.179 199.845C188.389 200.192 188.534 200.577 188.614 201H187.523ZM190.475 207V198.273H193.424C194.108 198.273 194.668 198.396 195.103 198.643C195.54 198.888 195.864 199.219 196.074 199.636C196.284 200.054 196.39 200.52 196.39 201.034C196.39 201.548 196.284 202.016 196.074 202.436C195.867 202.857 195.546 203.192 195.111 203.442C194.676 203.689 194.12 203.812 193.441 203.812H191.327V202.875H193.407C193.875 202.875 194.252 202.794 194.536 202.632C194.82 202.47 195.026 202.251 195.154 201.976C195.284 201.697 195.35 201.384 195.35 201.034C195.35 200.685 195.284 200.372 195.154 200.097C195.026 199.821 194.819 199.605 194.532 199.449C194.245 199.29 193.864 199.21 193.39 199.21H191.532V207H190.475ZM203.819 198.273H204.876V204.051C204.876 204.648 204.735 205.18 204.454 205.649C204.176 206.115 203.782 206.483 203.274 206.753C202.765 207.02 202.169 207.153 201.484 207.153C200.799 207.153 200.203 207.02 199.694 206.753C199.186 206.483 198.791 206.115 198.51 205.649C198.231 205.18 198.092 204.648 198.092 204.051V198.273H199.149V203.966C199.149 204.392 199.243 204.771 199.43 205.104C199.618 205.433 199.885 205.693 200.231 205.884C200.581 206.071 200.998 206.165 201.484 206.165C201.97 206.165 202.387 206.071 202.737 205.884C203.086 205.693 203.353 205.433 203.538 205.104C203.725 204.771 203.819 204.392 203.819 203.966V198.273Z" fill="black"/>
<path d="M77 104C77 98.4772 81.4772 94 87 94H132C137.523 94 142 98.4772 142 104V123H77V104Z" fill="#D9D9D9"/>
<path d="M91.4148 104.273L94.0057 111.619H94.108L96.6989 104.273H97.8068L94.6023 113H93.5114L90.3068 104.273H91.4148ZM103.155 110.324V106.455H104.161V113H103.155V111.892H103.087C102.933 112.224 102.695 112.507 102.371 112.74C102.047 112.97 101.638 113.085 101.143 113.085C100.734 113.085 100.371 112.996 100.053 112.817C99.7344 112.635 99.4844 112.362 99.3026 111.999C99.1207 111.632 99.0298 111.17 99.0298 110.614V106.455H100.036V110.545C100.036 111.023 100.169 111.403 100.436 111.688C100.706 111.972 101.05 112.114 101.467 112.114C101.717 112.114 101.972 112.05 102.23 111.922C102.491 111.794 102.71 111.598 102.886 111.334C103.065 111.07 103.155 110.733 103.155 110.324ZM107.008 104.273V113H106.002V104.273H107.008ZM109.788 110.614L109.771 109.369H109.975L112.839 106.455H114.083L111.032 109.54H110.947L109.788 110.614ZM108.85 113V104.273H109.856V113H108.85ZM113.009 113L110.452 109.761L111.168 109.062L114.288 113H113.009ZM117.304 113.153C116.889 113.153 116.512 113.075 116.174 112.919C115.836 112.76 115.568 112.531 115.369 112.233C115.17 111.932 115.071 111.568 115.071 111.142C115.071 110.767 115.145 110.463 115.292 110.23C115.44 109.994 115.637 109.81 115.885 109.676C116.132 109.543 116.404 109.443 116.703 109.378C117.004 109.31 117.306 109.256 117.61 109.216C118.008 109.165 118.331 109.126 118.578 109.101C118.828 109.072 119.01 109.026 119.123 108.96C119.24 108.895 119.298 108.781 119.298 108.619V108.585C119.298 108.165 119.183 107.838 118.953 107.605C118.725 107.372 118.38 107.256 117.917 107.256C117.437 107.256 117.061 107.361 116.788 107.571C116.515 107.781 116.324 108.006 116.213 108.244L115.258 107.903C115.429 107.506 115.656 107.196 115.94 106.974C116.227 106.75 116.539 106.594 116.877 106.506C117.218 106.415 117.554 106.369 117.883 106.369C118.093 106.369 118.335 106.395 118.608 106.446C118.883 106.494 119.149 106.595 119.404 106.749C119.663 106.902 119.877 107.134 120.048 107.443C120.218 107.753 120.304 108.168 120.304 108.688V113H119.298V112.114H119.247C119.179 112.256 119.065 112.408 118.906 112.57C118.747 112.732 118.535 112.869 118.271 112.983C118.007 113.097 117.684 113.153 117.304 113.153ZM117.457 112.25C117.855 112.25 118.19 112.172 118.463 112.016C118.738 111.859 118.946 111.658 119.085 111.411C119.227 111.163 119.298 110.903 119.298 110.631V109.71C119.255 109.761 119.162 109.808 119.017 109.851C118.875 109.891 118.71 109.926 118.522 109.957C118.338 109.986 118.157 110.011 117.981 110.034C117.808 110.054 117.667 110.071 117.559 110.085C117.298 110.119 117.054 110.175 116.826 110.251C116.602 110.325 116.42 110.437 116.281 110.588C116.145 110.736 116.076 110.937 116.076 111.193C116.076 111.543 116.206 111.807 116.464 111.986C116.725 112.162 117.056 112.25 117.457 112.25ZM123.145 109.062V113H122.139V106.455H123.111V107.477H123.196C123.349 107.145 123.582 106.878 123.895 106.676C124.207 106.472 124.611 106.369 125.105 106.369C125.548 106.369 125.936 106.46 126.268 106.642C126.601 106.821 126.859 107.094 127.044 107.46C127.229 107.824 127.321 108.284 127.321 108.841V113H126.315V108.909C126.315 108.395 126.182 107.994 125.915 107.707C125.648 107.418 125.281 107.273 124.815 107.273C124.494 107.273 124.207 107.342 123.955 107.482C123.705 107.621 123.507 107.824 123.362 108.091C123.217 108.358 123.145 108.682 123.145 109.062Z" fill="black"/>
<path d="M161 104C161 98.4772 165.477 94 171 94H216C221.523 94 226 98.4772 226 104V123H161V104Z" fill="#D9D9D9"/>
<path d="M178.557 104.273H179.818L182.784 111.517H182.886L185.852 104.273H187.114V113H186.125V106.369H186.04L183.312 113H182.358L179.631 106.369H179.545V113H178.557V104.273ZM191.841 113.136C191.21 113.136 190.666 112.997 190.208 112.719C189.754 112.438 189.403 112.045 189.156 111.543C188.912 111.037 188.789 110.449 188.789 109.778C188.789 109.108 188.912 108.517 189.156 108.006C189.403 107.491 189.747 107.091 190.187 106.804C190.63 106.514 191.147 106.369 191.738 106.369C192.079 106.369 192.416 106.426 192.748 106.54C193.081 106.653 193.383 106.838 193.656 107.094C193.929 107.347 194.146 107.682 194.308 108.099C194.47 108.517 194.551 109.031 194.551 109.642V110.068H189.505V109.199H193.528C193.528 108.83 193.454 108.5 193.306 108.21C193.162 107.92 192.954 107.692 192.684 107.524C192.417 107.357 192.102 107.273 191.738 107.273C191.338 107.273 190.991 107.372 190.699 107.571C190.409 107.767 190.186 108.023 190.029 108.338C189.873 108.653 189.795 108.991 189.795 109.352V109.932C189.795 110.426 189.88 110.845 190.051 111.189C190.224 111.53 190.464 111.79 190.771 111.969C191.078 112.145 191.434 112.233 191.841 112.233C192.105 112.233 192.343 112.196 192.556 112.122C192.772 112.045 192.958 111.932 193.115 111.781C193.271 111.628 193.392 111.437 193.477 111.21L194.449 111.483C194.346 111.812 194.174 112.102 193.933 112.352C193.691 112.599 193.393 112.793 193.038 112.932C192.683 113.068 192.284 113.136 191.841 113.136ZM198.927 106.455V107.307H195.535V106.455H198.927ZM196.524 104.886H197.529V111.125C197.529 111.409 197.571 111.622 197.653 111.764C197.738 111.903 197.846 111.997 197.977 112.045C198.11 112.091 198.251 112.114 198.399 112.114C198.51 112.114 198.6 112.108 198.672 112.097C198.743 112.082 198.799 112.071 198.842 112.062L199.047 112.966C198.978 112.991 198.883 113.017 198.761 113.043C198.639 113.071 198.484 113.085 198.297 113.085C198.012 113.085 197.734 113.024 197.461 112.902C197.191 112.78 196.967 112.594 196.788 112.344C196.612 112.094 196.524 111.778 196.524 111.398V104.886ZM202.366 113.153C201.951 113.153 201.575 113.075 201.237 112.919C200.899 112.76 200.63 112.531 200.431 112.233C200.233 111.932 200.133 111.568 200.133 111.142C200.133 110.767 200.207 110.463 200.355 110.23C200.502 109.994 200.7 109.81 200.947 109.676C201.194 109.543 201.467 109.443 201.765 109.378C202.066 109.31 202.369 109.256 202.673 109.216C203.071 109.165 203.393 109.126 203.64 109.101C203.89 109.072 204.072 109.026 204.186 108.96C204.302 108.895 204.36 108.781 204.36 108.619V108.585C204.36 108.165 204.245 107.838 204.015 107.605C203.788 107.372 203.443 107.256 202.98 107.256C202.5 107.256 202.123 107.361 201.85 107.571C201.578 107.781 201.386 108.006 201.275 108.244L200.321 107.903C200.491 107.506 200.718 107.196 201.002 106.974C201.289 106.75 201.602 106.594 201.94 106.506C202.281 106.415 202.616 106.369 202.946 106.369C203.156 106.369 203.397 106.395 203.67 106.446C203.946 106.494 204.211 106.595 204.467 106.749C204.725 106.902 204.94 107.134 205.11 107.443C205.281 107.753 205.366 108.168 205.366 108.688V113H204.36V112.114H204.309C204.241 112.256 204.127 112.408 203.968 112.57C203.809 112.732 203.598 112.869 203.333 112.983C203.069 113.097 202.747 113.153 202.366 113.153ZM202.52 112.25C202.917 112.25 203.252 112.172 203.525 112.016C203.801 111.859 204.008 111.658 204.147 111.411C204.289 111.163 204.36 110.903 204.36 110.631V109.71C204.318 109.761 204.224 109.808 204.079 109.851C203.937 109.891 203.772 109.926 203.585 109.957C203.4 109.986 203.22 110.011 203.044 110.034C202.87 110.054 202.73 110.071 202.622 110.085C202.36 110.119 202.116 110.175 201.889 110.251C201.664 110.325 201.483 110.437 201.343 110.588C201.207 110.736 201.139 110.937 201.139 111.193C201.139 111.543 201.268 111.807 201.527 111.986C201.788 112.162 202.119 112.25 202.52 112.25ZM208.207 104.273V113H207.202V104.273H208.207Z" fill="black"/>
<path d="M245 104C245 98.4772 249.477 94 255 94H300C305.523 94 310 98.4772 310 104V123H245V104Z" fill="#D9D9D9"/>
<path d="M272.75 113H270.057V104.273H272.869C273.716 104.273 274.44 104.447 275.043 104.797C275.645 105.143 276.107 105.642 276.428 106.293C276.749 106.94 276.909 107.716 276.909 108.619C276.909 109.528 276.747 110.311 276.423 110.967C276.099 111.621 275.628 112.124 275.009 112.476C274.389 112.825 273.636 113 272.75 113ZM271.114 112.062H272.682C273.403 112.062 274.001 111.923 274.476 111.645C274.95 111.366 275.304 110.97 275.537 110.456C275.77 109.942 275.886 109.33 275.886 108.619C275.886 107.915 275.771 107.308 275.541 106.8C275.311 106.288 274.967 105.896 274.51 105.624C274.053 105.348 273.483 105.21 272.801 105.21H271.114V112.062ZM279.053 104.273L281.303 107.903H281.371L283.621 104.273H284.865L282.121 108.636L284.865 113H283.621L281.371 109.438H281.303L279.053 113H277.808L280.621 108.636L277.808 104.273H279.053Z" fill="black"/>
<path d="M77 123H310V142C310 147.523 305.523 152 300 152H87C81.4772 152 77 147.523 77 142V123Z" fill="#C1C1C1"/>
<path d="M180.25 142H177.557V133.273H180.369C181.216 133.273 181.94 133.447 182.543 133.797C183.145 134.143 183.607 134.642 183.928 135.293C184.249 135.94 184.409 136.716 184.409 137.619C184.409 138.528 184.247 139.311 183.923 139.967C183.599 140.621 183.128 141.124 182.509 141.476C181.889 141.825 181.136 142 180.25 142ZM178.614 141.062H180.182C180.903 141.062 181.501 140.923 181.976 140.645C182.45 140.366 182.804 139.97 183.037 139.456C183.27 138.942 183.386 138.33 183.386 137.619C183.386 136.915 183.271 136.308 183.041 135.8C182.811 135.288 182.467 134.896 182.01 134.624C181.553 134.348 180.983 134.21 180.301 134.21H178.614V141.062ZM186.045 142V135.455H187.017V136.443H187.085C187.205 136.119 187.42 135.857 187.733 135.655C188.045 135.453 188.398 135.352 188.79 135.352C188.864 135.352 188.956 135.354 189.067 135.357C189.178 135.359 189.261 135.364 189.318 135.369V136.392C189.284 136.384 189.206 136.371 189.084 136.354C188.964 136.334 188.838 136.324 188.705 136.324C188.386 136.324 188.102 136.391 187.852 136.524C187.605 136.655 187.409 136.837 187.264 137.07C187.122 137.3 187.051 137.562 187.051 137.858V142H186.045ZM190.51 142V135.455H191.516V142H190.51ZM191.022 134.364C190.826 134.364 190.657 134.297 190.515 134.163C190.375 134.03 190.306 133.869 190.306 133.682C190.306 133.494 190.375 133.334 190.515 133.2C190.657 133.067 190.826 133 191.022 133C191.218 133 191.385 133.067 191.525 133.2C191.667 133.334 191.738 133.494 191.738 133.682C191.738 133.869 191.667 134.03 191.525 134.163C191.385 134.297 191.218 134.364 191.022 134.364ZM198.71 135.455L196.29 142H195.267L192.847 135.455H193.938L195.744 140.67H195.812L197.619 135.455H198.71ZM202.548 142.136C201.917 142.136 201.373 141.997 200.915 141.719C200.461 141.438 200.11 141.045 199.863 140.543C199.619 140.037 199.496 139.449 199.496 138.778C199.496 138.108 199.619 137.517 199.863 137.006C200.11 136.491 200.454 136.091 200.894 135.804C201.337 135.514 201.854 135.369 202.445 135.369C202.786 135.369 203.123 135.426 203.455 135.54C203.788 135.653 204.09 135.838 204.363 136.094C204.636 136.347 204.853 136.682 205.015 137.099C205.177 137.517 205.258 138.031 205.258 138.642V139.068H200.212V138.199H204.235C204.235 137.83 204.161 137.5 204.013 137.21C203.869 136.92 203.661 136.692 203.391 136.524C203.124 136.357 202.809 136.273 202.445 136.273C202.045 136.273 201.698 136.372 201.406 136.571C201.116 136.767 200.893 137.023 200.737 137.338C200.58 137.653 200.502 137.991 200.502 138.352V138.932C200.502 139.426 200.587 139.845 200.758 140.189C200.931 140.53 201.171 140.79 201.478 140.969C201.785 141.145 202.141 141.233 202.548 141.233C202.812 141.233 203.05 141.196 203.263 141.122C203.479 141.045 203.665 140.932 203.822 140.781C203.978 140.628 204.099 140.437 204.184 140.21L205.156 140.483C205.053 140.812 204.881 141.102 204.64 141.352C204.398 141.599 204.1 141.793 203.745 141.932C203.39 142.068 202.991 142.136 202.548 142.136ZM206.788 142V135.455H207.759V136.443H207.827C207.947 136.119 208.163 135.857 208.475 135.655C208.788 135.453 209.14 135.352 209.532 135.352C209.606 135.352 209.698 135.354 209.809 135.357C209.92 135.359 210.004 135.364 210.06 135.369V136.392C210.026 136.384 209.948 136.371 209.826 136.354C209.707 136.334 209.58 136.324 209.447 136.324C209.129 136.324 208.844 136.391 208.594 136.524C208.347 136.655 208.151 136.837 208.006 137.07C207.864 137.3 207.793 137.562 207.793 137.858V142H206.788Z" fill="black"/>
<path d="M77 10C77 4.47715 81.4772 0 87 0H300C305.523 0 310 4.47715 310 10V29H77V10Z" fill="#D9D9D9"/>
<path d="M153.057 19V10.2727H154.114V18.0625H158.17V19H153.057ZM162.33 19.1364C161.739 19.1364 161.22 18.9957 160.774 18.7145C160.331 18.4332 159.984 18.0398 159.734 17.5341C159.487 17.0284 159.364 16.4375 159.364 15.7614C159.364 15.0795 159.487 14.4844 159.734 13.9759C159.984 13.4673 160.331 13.0724 160.774 12.7912C161.22 12.5099 161.739 12.3693 162.33 12.3693C162.92 12.3693 163.438 12.5099 163.881 12.7912C164.327 13.0724 164.673 13.4673 164.92 13.9759C165.17 14.4844 165.295 15.0795 165.295 15.7614C165.295 16.4375 165.17 17.0284 164.92 17.5341C164.673 18.0398 164.327 18.4332 163.881 18.7145C163.438 18.9957 162.92 19.1364 162.33 19.1364ZM162.33 18.233C162.778 18.233 163.148 18.1179 163.438 17.8878C163.727 17.6577 163.942 17.3551 164.081 16.9801C164.22 16.6051 164.29 16.1989 164.29 15.7614C164.29 15.3239 164.22 14.9162 164.081 14.5384C163.942 14.1605 163.727 13.8551 163.438 13.6222C163.148 13.3892 162.778 13.2727 162.33 13.2727C161.881 13.2727 161.511 13.3892 161.222 13.6222C160.932 13.8551 160.717 14.1605 160.578 14.5384C160.439 14.9162 160.369 15.3239 160.369 15.7614C160.369 16.1989 160.439 16.6051 160.578 16.9801C160.717 17.3551 160.932 17.6577 161.222 17.8878C161.511 18.1179 161.881 18.233 162.33 18.233ZM169.473 21.5909C168.987 21.5909 168.569 21.5284 168.22 21.4034C167.87 21.2812 167.579 21.1193 167.346 20.9176C167.116 20.7188 166.933 20.5057 166.797 20.2784L167.598 19.7159C167.689 19.8352 167.804 19.9716 167.943 20.125C168.082 20.2812 168.272 20.4162 168.514 20.5298C168.758 20.6463 169.078 20.7045 169.473 20.7045C170.001 20.7045 170.437 20.5767 170.781 20.321C171.125 20.0653 171.297 19.6648 171.297 19.1193V17.7898H171.211C171.137 17.9091 171.032 18.0568 170.896 18.233C170.762 18.4062 170.569 18.5611 170.316 18.6974C170.066 18.831 169.728 18.8977 169.302 18.8977C168.774 18.8977 168.299 18.7727 167.879 18.5227C167.461 18.2727 167.13 17.9091 166.886 17.4318C166.645 16.9545 166.524 16.375 166.524 15.6932C166.524 15.0227 166.642 14.4389 166.877 13.9418C167.113 13.4418 167.441 13.0554 167.862 12.7827C168.282 12.5071 168.768 12.3693 169.319 12.3693C169.745 12.3693 170.083 12.4403 170.333 12.5824C170.586 12.7216 170.779 12.8807 170.913 13.0597C171.049 13.2358 171.154 13.3807 171.228 13.4943H171.331V12.4545H172.302V19.1875C172.302 19.75 172.174 20.2074 171.919 20.5597C171.666 20.9148 171.325 21.1747 170.896 21.3395C170.47 21.5071 169.995 21.5909 169.473 21.5909ZM169.439 17.9943C169.842 17.9943 170.183 17.902 170.461 17.7173C170.74 17.5327 170.951 17.267 171.096 16.9205C171.241 16.5739 171.314 16.1591 171.314 15.6761C171.314 15.2045 171.243 14.7884 171.1 14.4276C170.958 14.0668 170.748 13.7841 170.47 13.5795C170.191 13.375 169.848 13.2727 169.439 13.2727C169.012 13.2727 168.657 13.3807 168.373 13.5966C168.092 13.8125 167.88 14.1023 167.738 14.4659C167.599 14.8295 167.529 15.233 167.529 15.6761C167.529 16.1307 167.6 16.5327 167.743 16.8821C167.887 17.2287 168.1 17.5014 168.382 17.7003C168.666 17.8963 169.018 17.9943 169.439 17.9943ZM174.143 19V12.4545H175.149V19H174.143ZM174.654 11.3636C174.458 11.3636 174.289 11.2969 174.147 11.1634C174.008 11.0298 173.939 10.8693 173.939 10.6818C173.939 10.4943 174.008 10.3338 174.147 10.2003C174.289 10.0668 174.458 10 174.654 10C174.85 10 175.018 10.0668 175.157 10.2003C175.299 10.3338 175.37 10.4943 175.37 10.6818C175.37 10.8693 175.299 11.0298 175.157 11.1634C175.018 11.2969 174.85 11.3636 174.654 11.3636ZM179.65 19.1364C179.036 19.1364 178.508 18.9915 178.065 18.7017C177.621 18.4119 177.281 18.0128 177.042 17.5043C176.803 16.9957 176.684 16.4148 176.684 15.7614C176.684 15.0966 176.806 14.5099 177.05 14.0014C177.298 13.4901 177.641 13.0909 178.082 12.804C178.525 12.5142 179.042 12.3693 179.633 12.3693C180.093 12.3693 180.508 12.4545 180.877 12.625C181.246 12.7955 181.549 13.0341 181.785 13.3409C182.021 13.6477 182.167 14.0057 182.224 14.4148H181.218C181.141 14.1165 180.971 13.8523 180.707 13.6222C180.445 13.3892 180.093 13.2727 179.65 13.2727C179.258 13.2727 178.914 13.375 178.619 13.5795C178.326 13.7812 178.097 14.0668 177.933 14.4361C177.771 14.8026 177.69 15.233 177.69 15.7273C177.69 16.233 177.769 16.6733 177.928 17.0483C178.09 17.4233 178.317 17.7145 178.61 17.9219C178.906 18.1293 179.252 18.233 179.65 18.233C179.911 18.233 180.148 18.1875 180.362 18.0966C180.575 18.0057 180.755 17.875 180.903 17.7045C181.05 17.5341 181.156 17.3295 181.218 17.0909H182.224C182.167 17.4773 182.026 17.8253 181.802 18.1349C181.58 18.4418 181.286 18.6861 180.92 18.8679C180.556 19.0469 180.133 19.1364 179.65 19.1364ZM185.62 19.1534C185.205 19.1534 184.829 19.0753 184.491 18.919C184.153 18.7599 183.884 18.5312 183.685 18.233C183.487 17.9318 183.387 17.5682 183.387 17.142C183.387 16.767 183.461 16.4631 183.609 16.2301C183.756 15.9943 183.954 15.8097 184.201 15.6761C184.448 15.5426 184.721 15.4432 185.019 15.3778C185.32 15.3097 185.623 15.2557 185.927 15.2159C186.325 15.1648 186.647 15.1264 186.894 15.1009C187.144 15.0724 187.326 15.0256 187.44 14.9602C187.556 14.8949 187.614 14.7812 187.614 14.6193V14.5852C187.614 14.1648 187.499 13.8381 187.269 13.6051C187.042 13.3722 186.697 13.2557 186.234 13.2557C185.754 13.2557 185.377 13.3608 185.104 13.571C184.832 13.7812 184.64 14.0057 184.529 14.2443L183.575 13.9034C183.745 13.5057 183.972 13.196 184.256 12.9744C184.543 12.75 184.856 12.5937 185.194 12.5057C185.535 12.4148 185.87 12.3693 186.2 12.3693C186.41 12.3693 186.651 12.3949 186.924 12.446C187.2 12.4943 187.465 12.5952 187.721 12.7486C187.979 12.902 188.194 13.1335 188.364 13.4432C188.535 13.7528 188.62 14.1676 188.62 14.6875V19H187.614V18.1136H187.563C187.495 18.2557 187.381 18.4077 187.222 18.5696C187.063 18.7315 186.852 18.8693 186.587 18.983C186.323 19.0966 186.001 19.1534 185.62 19.1534ZM185.773 18.25C186.171 18.25 186.506 18.1719 186.779 18.0156C187.055 17.8594 187.262 17.6577 187.401 17.4105C187.543 17.1634 187.614 16.9034 187.614 16.6307V15.7102C187.572 15.7614 187.478 15.8082 187.333 15.8509C187.191 15.8906 187.026 15.9261 186.839 15.9574C186.654 15.9858 186.474 16.0114 186.298 16.0341C186.124 16.054 185.984 16.071 185.876 16.0852C185.614 16.1193 185.37 16.1747 185.143 16.2514C184.918 16.3253 184.737 16.4375 184.597 16.5881C184.461 16.7358 184.393 16.9375 184.393 17.1932C184.393 17.5426 184.522 17.8068 184.781 17.9858C185.042 18.1619 185.373 18.25 185.773 18.25ZM191.461 10.2727V19H190.456V10.2727H191.461ZM199.508 19H196.815V10.2727H199.627C200.474 10.2727 201.198 10.4474 201.8 10.7969C202.403 11.1435 202.864 11.642 203.185 12.2926C203.506 12.9403 203.667 13.7159 203.667 14.6193C203.667 15.5284 203.505 16.3111 203.181 16.9673C202.857 17.6207 202.386 18.1236 201.766 18.4759C201.147 18.8253 200.394 19 199.508 19ZM197.871 18.0625H199.44C200.161 18.0625 200.759 17.9233 201.234 17.6449C201.708 17.3665 202.062 16.9702 202.295 16.456C202.528 15.9418 202.644 15.3295 202.644 14.6193C202.644 13.9148 202.529 13.3082 202.299 12.7997C202.069 12.2884 201.725 11.8963 201.268 11.6236C200.81 11.348 200.241 11.2102 199.559 11.2102H197.871V18.0625ZM208.048 19.1364C207.417 19.1364 206.873 18.9972 206.415 18.7188C205.961 18.4375 205.61 18.0455 205.363 17.5426C205.119 17.0369 204.996 16.4489 204.996 15.7784C204.996 15.108 205.119 14.517 205.363 14.0057C205.61 13.4915 205.954 13.0909 206.394 12.804C206.837 12.5142 207.354 12.3693 207.945 12.3693C208.286 12.3693 208.623 12.4261 208.955 12.5398C209.288 12.6534 209.59 12.8381 209.863 13.0938C210.136 13.3466 210.353 13.6818 210.515 14.0994C210.677 14.517 210.758 15.0312 210.758 15.642V16.0682H205.712V15.1989H209.735C209.735 14.8295 209.661 14.5 209.513 14.2102C209.369 13.9205 209.161 13.6918 208.891 13.5241C208.624 13.3565 208.309 13.2727 207.945 13.2727C207.545 13.2727 207.198 13.3722 206.906 13.571C206.616 13.767 206.393 14.0227 206.237 14.3381C206.08 14.6534 206.002 14.9915 206.002 15.3523V15.9318C206.002 16.4261 206.087 16.8452 206.258 17.1889C206.431 17.5298 206.671 17.7898 206.978 17.9688C207.285 18.1449 207.641 18.233 208.048 18.233C208.312 18.233 208.55 18.196 208.763 18.1222C208.979 18.0455 209.165 17.9318 209.322 17.7812C209.478 17.6278 209.599 17.4375 209.684 17.2102L210.656 17.483C210.553 17.8125 210.381 18.1023 210.14 18.3523C209.898 18.5994 209.6 18.7926 209.245 18.9318C208.89 19.0682 208.491 19.1364 208.048 19.1364ZM217.441 12.4545L215.02 19H213.998L211.577 12.4545H212.668L214.475 17.6705H214.543L216.35 12.4545H217.441ZM218.768 19V12.4545H219.774V19H218.768ZM219.279 11.3636C219.083 11.3636 218.914 11.2969 218.772 11.1634C218.633 11.0298 218.564 10.8693 218.564 10.6818C218.564 10.4943 218.633 10.3338 218.772 10.2003C218.914 10.0668 219.083 10 219.279 10C219.475 10 219.643 10.0668 219.782 10.2003C219.924 10.3338 219.995 10.4943 219.995 10.6818C219.995 10.8693 219.924 11.0298 219.782 11.1634C219.643 11.2969 219.475 11.3636 219.279 11.3636ZM224.275 19.1364C223.661 19.1364 223.133 18.9915 222.69 18.7017C222.246 18.4119 221.906 18.0128 221.667 17.5043C221.428 16.9957 221.309 16.4148 221.309 15.7614C221.309 15.0966 221.431 14.5099 221.675 14.0014C221.923 13.4901 222.266 13.0909 222.707 12.804C223.15 12.5142 223.667 12.3693 224.258 12.3693C224.718 12.3693 225.133 12.4545 225.502 12.625C225.871 12.7955 226.174 13.0341 226.41 13.3409C226.646 13.6477 226.792 14.0057 226.849 14.4148H225.843C225.766 14.1165 225.596 13.8523 225.332 13.6222C225.07 13.3892 224.718 13.2727 224.275 13.2727C223.883 13.2727 223.539 13.375 223.244 13.5795C222.951 13.7812 222.722 14.0668 222.558 14.4361C222.396 14.8026 222.315 15.233 222.315 15.7273C222.315 16.233 222.394 16.6733 222.553 17.0483C222.715 17.4233 222.942 17.7145 223.235 17.9219C223.531 18.1293 223.877 18.233 224.275 18.233C224.536 18.233 224.773 18.1875 224.987 18.0966C225.2 18.0057 225.38 17.875 225.528 17.7045C225.675 17.5341 225.781 17.3295 225.843 17.0909H226.849C226.792 17.4773 226.651 17.8253 226.427 18.1349C226.205 18.4418 225.911 18.6861 225.545 18.8679C225.181 19.0469 224.758 19.1364 224.275 19.1364ZM231.063 19.1364C230.433 19.1364 229.888 18.9972 229.431 18.7188C228.977 18.4375 228.626 18.0455 228.379 17.5426C228.134 17.0369 228.012 16.4489 228.012 15.7784C228.012 15.108 228.134 14.517 228.379 14.0057C228.626 13.4915 228.969 13.0909 229.41 12.804C229.853 12.5142 230.37 12.3693 230.961 12.3693C231.302 12.3693 231.638 12.4261 231.971 12.5398C232.303 12.6534 232.606 12.8381 232.879 13.0938C233.151 13.3466 233.369 13.6818 233.531 14.0994C233.692 14.517 233.773 15.0312 233.773 15.642V16.0682H228.728V15.1989H232.751C232.751 14.8295 232.677 14.5 232.529 14.2102C232.384 13.9205 232.177 13.6918 231.907 13.5241C231.64 13.3565 231.325 13.2727 230.961 13.2727C230.56 13.2727 230.214 13.3722 229.921 13.571C229.631 13.767 229.408 14.0227 229.252 14.3381C229.096 14.6534 229.018 14.9915 229.018 15.3523V15.9318C229.018 16.4261 229.103 16.8452 229.273 17.1889C229.447 17.5298 229.687 17.7898 229.994 17.9688C230.3 18.1449 230.657 18.233 231.063 18.233C231.327 18.233 231.566 18.196 231.779 18.1222C231.995 18.0455 232.181 17.9318 232.337 17.7812C232.494 17.6278 232.614 17.4375 232.7 17.2102L233.671 17.483C233.569 17.8125 233.397 18.1023 233.156 18.3523C232.914 18.5994 232.616 18.7926 232.261 18.9318C231.906 19.0682 231.506 19.1364 231.063 19.1364Z" fill="black"/>
<path d="M77 29H310V48C310 53.5228 305.523 58 300 58H87C81.4772 58 77 53.5228 77 48V29Z" fill="#C1C1C1"/>
<path d="M171.915 48H170.807L174.011 39.2727H175.102L178.307 48H177.199L174.591 40.6534H174.523L171.915 48ZM172.324 44.5909H176.79V45.5284H172.324V44.5909ZM182.001 48.1364C181.456 48.1364 180.974 47.9986 180.557 47.723C180.139 47.4446 179.813 47.0526 179.577 46.5469C179.341 46.0384 179.223 45.4375 179.223 44.7443C179.223 44.0568 179.341 43.4602 179.577 42.9545C179.813 42.4489 180.141 42.0582 180.561 41.7827C180.982 41.5071 181.467 41.3693 182.018 41.3693C182.445 41.3693 182.781 41.4403 183.028 41.5824C183.278 41.7216 183.469 41.8807 183.599 42.0597C183.733 42.2358 183.837 42.3807 183.911 42.4943H183.996V39.2727H185.001V48H184.03V46.9943H183.911C183.837 47.1136 183.732 47.2642 183.595 47.446C183.459 47.625 183.264 47.7855 183.011 47.9276C182.759 48.0668 182.422 48.1364 182.001 48.1364ZM182.138 47.233C182.541 47.233 182.882 47.1278 183.161 46.9176C183.439 46.7045 183.651 46.4105 183.795 46.0355C183.94 45.6577 184.013 45.2216 184.013 44.7273C184.013 44.2386 183.942 43.8111 183.8 43.4446C183.658 43.0753 183.447 42.7884 183.169 42.5838C182.891 42.3764 182.547 42.2727 182.138 42.2727C181.712 42.2727 181.357 42.3821 181.072 42.6009C180.791 42.8168 180.58 43.1108 180.438 43.483C180.298 43.8523 180.229 44.267 180.229 44.7273C180.229 45.1932 180.3 45.6165 180.442 45.9972C180.587 46.375 180.8 46.6761 181.081 46.9006C181.365 47.1222 181.717 47.233 182.138 47.233ZM188.909 48.1534C188.494 48.1534 188.118 48.0753 187.78 47.919C187.442 47.7599 187.173 47.5312 186.974 47.233C186.776 46.9318 186.676 46.5682 186.676 46.142C186.676 45.767 186.75 45.4631 186.898 45.2301C187.045 44.9943 187.243 44.8097 187.49 44.6761C187.737 44.5426 188.01 44.4432 188.308 44.3778C188.609 44.3097 188.912 44.2557 189.216 44.2159C189.614 44.1648 189.936 44.1264 190.183 44.1009C190.433 44.0724 190.615 44.0256 190.729 43.9602C190.845 43.8949 190.903 43.7812 190.903 43.6193V43.5852C190.903 43.1648 190.788 42.8381 190.558 42.6051C190.331 42.3722 189.986 42.2557 189.523 42.2557C189.043 42.2557 188.666 42.3608 188.393 42.571C188.121 42.7812 187.929 43.0057 187.818 43.2443L186.864 42.9034C187.034 42.5057 187.261 42.196 187.545 41.9744C187.832 41.75 188.145 41.5937 188.483 41.5057C188.824 41.4148 189.159 41.3693 189.489 41.3693C189.699 41.3693 189.94 41.3949 190.213 41.446C190.489 41.4943 190.754 41.5952 191.01 41.7486C191.268 41.902 191.483 42.1335 191.653 42.4432C191.824 42.7528 191.909 43.1676 191.909 43.6875V48H190.903V47.1136H190.852C190.784 47.2557 190.67 47.4077 190.511 47.5696C190.352 47.7315 190.141 47.8693 189.876 47.983C189.612 48.0966 189.29 48.1534 188.909 48.1534ZM189.062 47.25C189.46 47.25 189.795 47.1719 190.068 47.0156C190.344 46.8594 190.551 46.6577 190.69 46.4105C190.832 46.1634 190.903 45.9034 190.903 45.6307V44.7102C190.861 44.7614 190.767 44.8082 190.622 44.8509C190.48 44.8906 190.315 44.9261 190.128 44.9574C189.943 44.9858 189.763 45.0114 189.587 45.0341C189.413 45.054 189.273 45.071 189.165 45.0852C188.903 45.1193 188.659 45.1747 188.432 45.2514C188.207 45.3253 188.026 45.4375 187.886 45.5881C187.75 45.7358 187.682 45.9375 187.682 46.1932C187.682 46.5426 187.811 46.8068 188.07 46.9858C188.331 47.1619 188.662 47.25 189.062 47.25ZM193.745 50.4545V41.4545H194.716V42.4943H194.836C194.909 42.3807 195.012 42.2358 195.142 42.0597C195.276 41.8807 195.466 41.7216 195.713 41.5824C195.963 41.4403 196.301 41.3693 196.728 41.3693C197.279 41.3693 197.765 41.5071 198.185 41.7827C198.605 42.0582 198.934 42.4489 199.169 42.9545C199.405 43.4602 199.523 44.0568 199.523 44.7443C199.523 45.4375 199.405 46.0384 199.169 46.5469C198.934 47.0526 198.607 47.4446 198.189 47.723C197.772 47.9986 197.29 48.1364 196.745 48.1364C196.324 48.1364 195.988 48.0668 195.735 47.9276C195.482 47.7855 195.287 47.625 195.151 47.446C195.015 47.2642 194.909 47.1136 194.836 46.9943H194.75V50.4545H193.745ZM194.733 44.7273C194.733 45.2216 194.806 45.6577 194.951 46.0355C195.096 46.4105 195.307 46.7045 195.586 46.9176C195.864 47.1278 196.205 47.233 196.608 47.233C197.029 47.233 197.38 47.1222 197.661 46.9006C197.945 46.6761 198.158 46.375 198.3 45.9972C198.445 45.6165 198.517 45.1932 198.517 44.7273C198.517 44.267 198.446 43.8523 198.304 43.483C198.165 43.1108 197.953 42.8168 197.669 42.6009C197.388 42.3821 197.034 42.2727 196.608 42.2727C196.199 42.2727 195.855 42.3764 195.577 42.5838C195.299 42.7884 195.088 43.0753 194.946 43.4446C194.804 43.8111 194.733 44.2386 194.733 44.7273ZM203.904 41.4545V42.3068H200.512V41.4545H203.904ZM201.5 39.8864H202.506V46.125C202.506 46.4091 202.547 46.6222 202.63 46.7642C202.715 46.9034 202.823 46.9972 202.953 47.0455C203.087 47.0909 203.228 47.1136 203.375 47.1136C203.486 47.1136 203.577 47.108 203.648 47.0966C203.719 47.0824 203.776 47.071 203.819 47.0625L204.023 47.9659C203.955 47.9915 203.86 48.017 203.738 48.0426C203.615 48.071 203.461 48.0852 203.273 48.0852C202.989 48.0852 202.711 48.0241 202.438 47.902C202.168 47.7798 201.944 47.5938 201.765 47.3438C201.588 47.0938 201.5 46.7784 201.5 46.3977V39.8864ZM208.091 48.1364C207.46 48.1364 206.916 47.9972 206.458 47.7188C206.004 47.4375 205.653 47.0455 205.406 46.5426C205.162 46.0369 205.039 45.4489 205.039 44.7784C205.039 44.108 205.162 43.517 205.406 43.0057C205.653 42.4915 205.997 42.0909 206.437 41.804C206.88 41.5142 207.397 41.3693 207.988 41.3693C208.329 41.3693 208.666 41.4261 208.998 41.5398C209.331 41.6534 209.633 41.8381 209.906 42.0938C210.179 42.3466 210.396 42.6818 210.558 43.0994C210.72 43.517 210.801 44.0312 210.801 44.642V45.0682H205.755V44.1989H209.778C209.778 43.8295 209.704 43.5 209.556 43.2102C209.412 42.9205 209.204 42.6918 208.934 42.5241C208.667 42.3565 208.352 42.2727 207.988 42.2727C207.588 42.2727 207.241 42.3722 206.949 42.571C206.659 42.767 206.436 43.0227 206.279 43.3381C206.123 43.6534 206.045 43.9915 206.045 44.3523V44.9318C206.045 45.4261 206.13 45.8452 206.301 46.1889C206.474 46.5298 206.714 46.7898 207.021 46.9688C207.328 47.1449 207.684 47.233 208.091 47.233C208.355 47.233 208.593 47.196 208.806 47.1222C209.022 47.0455 209.208 46.9318 209.365 46.7812C209.521 46.6278 209.642 46.4375 209.727 46.2102L210.699 46.483C210.596 46.8125 210.424 47.1023 210.183 47.3523C209.941 47.5994 209.643 47.7926 209.288 47.9318C208.933 48.0682 208.534 48.1364 208.091 48.1364ZM212.331 48V41.4545H213.302V42.4432H213.37C213.49 42.1193 213.706 41.8565 214.018 41.6548C214.331 41.4531 214.683 41.3523 215.075 41.3523C215.149 41.3523 215.241 41.3537 215.352 41.3565C215.463 41.3594 215.547 41.3636 215.603 41.3693V42.392C215.569 42.3835 215.491 42.3707 215.369 42.3537C215.25 42.3338 215.123 42.3239 214.99 42.3239C214.672 42.3239 214.387 42.3906 214.137 42.5241C213.89 42.6548 213.694 42.8366 213.549 43.0696C213.407 43.2997 213.336 43.5625 213.336 43.858V48H212.331Z" fill="black"/>
<path d="M194.354 57.6464C194.158 57.4512 193.842 57.4512 193.646 57.6464L190.464 60.8284C190.269 61.0237 190.269 61.3403 190.464 61.5355C190.66 61.7308 190.976 61.7308 191.172 61.5355L194 58.7071L196.828 61.5355C197.024 61.7308 197.34 61.7308 197.536 61.5355C197.731 61.3403 197.731 61.0237 197.536 60.8284L194.354 57.6464ZM193.646 94.3536C193.842 94.5488 194.158 94.5488 194.354 94.3536L197.536 91.1716C197.731 90.9763 197.731 90.6597 197.536 90.4645C197.34 90.2692 197.024 90.2692 196.828 90.4645L194 93.2929L191.172 90.4645C190.976 90.2692 190.66 90.2692 190.464 90.4645C190.269 90.6597 190.269 90.9763 190.464 91.1716L193.646 94.3536ZM193.5 58V94H194.5V58H193.5Z" fill="black"/>
<path d="M194.354 151.646C194.158 151.451 193.842 151.451 193.646 151.646L190.464 154.828C190.269 155.024 190.269 155.34 190.464 155.536C190.66 155.731 190.976 155.731 191.172 155.536L194 152.707L196.828 155.536C197.024 155.731 197.34 155.731 197.536 155.536C197.731 155.34 197.731 155.024 197.536 154.828L194.354 151.646ZM193.646 188.354C193.842 188.549 194.158 188.549 194.354 188.354L197.536 185.172C197.731 184.976 197.731 184.66 197.536 184.464C197.34 184.269 197.024 184.269 196.828 184.464L194 187.293L191.172 184.464C190.976 184.269 190.66 184.269 190.464 184.464C190.269 184.66 190.269 184.976 190.464 185.172L193.646 188.354ZM193.5 152V188H194.5V152H193.5Z" fill="black"/>
<path d="M17.9936 29L15.6072 20.2727H16.6811L18.505 27.3807H18.5902L20.4482 20.2727H21.6413L23.4993 27.3807H23.5845L25.4084 20.2727H26.4822L24.0959 29H23.005L21.0788 22.0455H21.0107L19.0845 29H17.9936ZM29.7976 29.1364C29.1669 29.1364 28.6229 28.9972 28.1655 28.7188C27.7109 28.4375 27.3601 28.0455 27.1129 27.5426C26.8686 27.0369 26.7464 26.4489 26.7464 25.7784C26.7464 25.108 26.8686 24.517 27.1129 24.0057C27.3601 23.4915 27.7038 23.0909 28.1442 22.804C28.5874 22.5142 29.1044 22.3693 29.6953 22.3693C30.0362 22.3693 30.3729 22.4261 30.7053 22.5398C31.0376 22.6534 31.3402 22.8381 31.6129 23.0938C31.8857 23.3466 32.103 23.6818 32.2649 24.0994C32.4268 24.517 32.5078 25.0312 32.5078 25.642V26.0682H27.4624V25.1989H31.4851C31.4851 24.8295 31.4112 24.5 31.2635 24.2102C31.1186 23.9205 30.9112 23.6918 30.6413 23.5241C30.3743 23.3565 30.0589 23.2727 29.6953 23.2727C29.2947 23.2727 28.9482 23.3722 28.6555 23.571C28.3658 23.767 28.1428 24.0227 27.9865 24.3381C27.8303 24.6534 27.7521 24.9915 27.7521 25.3523V25.9318C27.7521 26.4261 27.8374 26.8452 28.0078 27.1889C28.1811 27.5298 28.4212 27.7898 28.728 27.9688C29.0348 28.1449 29.3913 28.233 29.7976 28.233C30.0618 28.233 30.3004 28.196 30.5135 28.1222C30.7294 28.0455 30.9155 27.9318 31.0717 27.7812C31.228 27.6278 31.3487 27.4375 31.4339 27.2102L32.4055 27.483C32.3033 27.8125 32.1314 28.1023 31.8899 28.3523C31.6484 28.5994 31.3501 28.7926 30.995 28.9318C30.6399 29.0682 30.2408 29.1364 29.7976 29.1364ZM34.174 29V20.2727H35.1797V23.4943H35.2649C35.3388 23.3807 35.4411 23.2358 35.5717 23.0597C35.7053 22.8807 35.8956 22.7216 36.1428 22.5824C36.3928 22.4403 36.7308 22.3693 37.157 22.3693C37.7081 22.3693 38.1939 22.5071 38.6143 22.7827C39.0348 23.0582 39.3629 23.4489 39.5987 23.9545C39.8345 24.4602 39.9524 25.0568 39.9524 25.7443C39.9524 26.4375 39.8345 27.0384 39.5987 27.5469C39.3629 28.0526 39.0362 28.4446 38.6186 28.723C38.201 28.9986 37.7195 29.1364 37.174 29.1364C36.7536 29.1364 36.4169 29.0668 36.1641 28.9276C35.9112 28.7855 35.7166 28.625 35.5803 28.446C35.4439 28.2642 35.3388 28.1136 35.2649 27.9943H35.1456V29H34.174ZM35.1626 25.7273C35.1626 26.2216 35.2351 26.6577 35.38 27.0355C35.5249 27.4105 35.7365 27.7045 36.0149 27.9176C36.2933 28.1278 36.6342 28.233 37.0376 28.233C37.4581 28.233 37.8089 28.1222 38.0902 27.9006C38.3743 27.6761 38.5874 27.375 38.7294 26.9972C38.8743 26.6165 38.9467 26.1932 38.9467 25.7273C38.9467 25.267 38.8757 24.8523 38.7337 24.483C38.5945 24.1108 38.3828 23.8168 38.0987 23.6009C37.8175 23.3821 37.4638 23.2727 37.0376 23.2727C36.6286 23.2727 36.2848 23.3764 36.0064 23.5838C35.728 23.7884 35.5178 24.0753 35.3757 24.4446C35.2337 24.8111 35.1626 25.2386 35.1626 25.7273ZM47.593 23C47.4993 22.7131 47.3757 22.456 47.2223 22.2287C47.0717 21.9986 46.8913 21.8026 46.6811 21.6406C46.4737 21.4787 46.2379 21.3551 45.9737 21.2699C45.7095 21.1847 45.4197 21.142 45.1044 21.142C44.5874 21.142 44.1172 21.2756 43.6939 21.5426C43.2706 21.8097 42.9339 22.2031 42.6839 22.723C42.4339 23.2429 42.3089 23.8807 42.3089 24.6364C42.3089 25.392 42.4354 26.0298 42.6882 26.5497C42.9411 27.0696 43.2834 27.4631 43.7152 27.7301C44.147 27.9972 44.6328 28.1307 45.1726 28.1307C45.6726 28.1307 46.1129 28.0241 46.4936 27.8111C46.8771 27.5952 47.1754 27.2912 47.3885 26.8991C47.6044 26.5043 47.7124 26.0398 47.7124 25.5057L48.0362 25.5739H45.4112V24.6364H48.7351V25.5739C48.7351 26.2926 48.5817 26.9176 48.2749 27.4489C47.9709 27.9801 47.5504 28.392 47.0135 28.6847C46.4794 28.9744 45.8658 29.1193 45.1726 29.1193C44.3999 29.1193 43.7209 28.9375 43.1357 28.5739C42.5533 28.2102 42.0987 27.6932 41.772 27.0227C41.4482 26.3523 41.2862 25.5568 41.2862 24.6364C41.2862 23.946 41.3786 23.3253 41.5632 22.7741C41.7507 22.2202 42.0149 21.7486 42.3558 21.3594C42.6967 20.9702 43.1001 20.6719 43.5661 20.4645C44.032 20.2571 44.5447 20.1534 45.1044 20.1534C45.5646 20.1534 45.9936 20.223 46.3913 20.3622C46.7919 20.4986 47.1484 20.6932 47.4609 20.946C47.7763 21.196 48.0391 21.4957 48.2493 21.8452C48.4595 22.1918 48.6044 22.5767 48.6839 23H47.593ZM50.5451 29V20.2727H53.494C54.1786 20.2727 54.7383 20.3963 55.1729 20.6435C55.6104 20.8878 55.9343 21.2188 56.1445 21.6364C56.3548 22.054 56.4599 22.5199 56.4599 23.0341C56.4599 23.5483 56.3548 24.0156 56.1445 24.4361C55.9371 24.8565 55.6161 25.1918 55.1815 25.4418C54.7468 25.6889 54.19 25.8125 53.511 25.8125H51.3974V24.875H53.4769C53.9457 24.875 54.3221 24.794 54.6062 24.6321C54.8903 24.4702 55.0962 24.2514 55.2241 23.9759C55.3548 23.6974 55.4201 23.3835 55.4201 23.0341C55.4201 22.6847 55.3548 22.3722 55.2241 22.0966C55.0962 21.821 54.8888 21.6051 54.6019 21.4489C54.315 21.2898 53.9343 21.2102 53.4599 21.2102H51.6019V29H50.5451ZM63.8896 20.2727H64.9464V26.0511C64.9464 26.6477 64.8058 27.1804 64.5245 27.6491C64.2461 28.1151 63.8526 28.483 63.3441 28.7528C62.8356 29.0199 62.239 29.1534 61.5543 29.1534C60.8697 29.1534 60.2731 29.0199 59.7646 28.7528C59.256 28.483 58.8612 28.1151 58.5799 27.6491C58.3015 27.1804 58.1623 26.6477 58.1623 26.0511V20.2727H59.2191V25.9659C59.2191 26.392 59.3129 26.7713 59.5004 27.1037C59.6879 27.4332 59.9549 27.6932 60.3015 27.8835C60.6509 28.071 61.0685 28.1648 61.5543 28.1648C62.0401 28.1648 62.4577 28.071 62.8072 27.8835C63.1566 27.6932 63.4237 27.4332 63.6083 27.1037C63.7958 26.7713 63.8896 26.392 63.8896 25.9659V20.2727ZM48.5124 44H47.4045L50.609 35.2727H51.6999L54.9045 44H53.7965L51.1886 36.6534H51.1204L48.5124 44ZM48.9215 40.5909H53.3874V41.5284H48.9215V40.5909ZM56.2638 44V35.2727H59.2127C59.8974 35.2727 60.457 35.3963 60.8917 35.6435C61.3292 35.8878 61.6531 36.2188 61.8633 36.6364C62.0735 37.054 62.1786 37.5199 62.1786 38.0341C62.1786 38.5483 62.0735 39.0156 61.8633 39.4361C61.6559 39.8565 61.3349 40.1918 60.9002 40.4418C60.4656 40.6889 59.9087 40.8125 59.2298 40.8125H57.1161V39.875H59.1957C59.6644 39.875 60.0408 39.794 60.3249 39.6321C60.609 39.4702 60.815 39.2514 60.9428 38.9759C61.0735 38.6974 61.1388 38.3835 61.1388 38.0341C61.1388 37.6847 61.0735 37.3722 60.9428 37.0966C60.815 36.821 60.6076 36.6051 60.3207 36.4489C60.0337 36.2898 59.6531 36.2102 59.1786 36.2102H57.3207V44H56.2638ZM64.9379 35.2727V44H63.881V35.2727H64.9379Z" fill="black"/>
<path d="M15.2663 111.273V120H14.2436L9.48793 113.148H9.4027V120H8.34588V111.273H9.36861L14.1413 118.142H14.2266V111.273H15.2663ZM19.1708 120.153C18.756 120.153 18.3796 120.075 18.0415 119.919C17.7035 119.76 17.435 119.531 17.2362 119.233C17.0373 118.932 16.9379 118.568 16.9379 118.142C16.9379 117.767 17.0117 117.463 17.1594 117.23C17.3072 116.994 17.5046 116.81 17.7518 116.676C17.9989 116.543 18.2717 116.443 18.57 116.378C18.8711 116.31 19.1737 116.256 19.4776 116.216C19.8754 116.165 20.1978 116.126 20.445 116.101C20.695 116.072 20.8768 116.026 20.9904 115.96C21.1069 115.895 21.1651 115.781 21.1651 115.619V115.585C21.1651 115.165 21.0501 114.838 20.82 114.605C20.5927 114.372 20.2475 114.256 19.7844 114.256C19.3043 114.256 18.9279 114.361 18.6552 114.571C18.3825 114.781 18.1907 115.006 18.0799 115.244L17.1254 114.903C17.2958 114.506 17.5231 114.196 17.8072 113.974C18.0941 113.75 18.4066 113.594 18.7447 113.506C19.0856 113.415 19.4208 113.369 19.7504 113.369C19.9606 113.369 20.2021 113.395 20.4748 113.446C20.7504 113.494 21.016 113.595 21.2717 113.749C21.5302 113.902 21.7447 114.134 21.9151 114.443C22.0856 114.753 22.1708 115.168 22.1708 115.688V120H21.1651V119.114H21.114C21.0458 119.256 20.9322 119.408 20.7731 119.57C20.614 119.732 20.4023 119.869 20.1381 119.983C19.8739 120.097 19.5515 120.153 19.1708 120.153ZM19.3242 119.25C19.7219 119.25 20.0572 119.172 20.3299 119.016C20.6055 118.859 20.8129 118.658 20.9521 118.411C21.0941 118.163 21.1651 117.903 21.1651 117.631V116.71C21.1225 116.761 21.0288 116.808 20.8839 116.851C20.7418 116.891 20.5771 116.926 20.3896 116.957C20.2049 116.986 20.0245 117.011 19.8484 117.034C19.6751 117.054 19.5344 117.071 19.4265 117.085C19.1651 117.119 18.9208 117.175 18.6935 117.251C18.4691 117.325 18.2873 117.437 18.1481 117.588C18.0117 117.736 17.9435 117.937 17.9435 118.193C17.9435 118.543 18.0728 118.807 18.3313 118.986C18.5927 119.162 18.9237 119.25 19.3242 119.25ZM26.853 113.455V114.307H23.4609V113.455H26.853ZM24.4496 111.886H25.4553V118.125C25.4553 118.409 25.4964 118.622 25.5788 118.764C25.6641 118.903 25.772 118.997 25.9027 119.045C26.0362 119.091 26.1768 119.114 26.3246 119.114C26.4354 119.114 26.5263 119.108 26.5973 119.097C26.6683 119.082 26.7251 119.071 26.7678 119.062L26.9723 119.966C26.9041 119.991 26.8089 120.017 26.6868 120.043C26.5646 120.071 26.4098 120.085 26.2223 120.085C25.9382 120.085 25.6598 120.024 25.3871 119.902C25.1172 119.78 24.8928 119.594 24.7138 119.344C24.5376 119.094 24.4496 118.778 24.4496 118.398V111.886ZM28.3658 120V113.455H29.3714V120H28.3658ZM28.8771 112.364C28.6811 112.364 28.5121 112.297 28.37 112.163C28.2308 112.03 28.1612 111.869 28.1612 111.682C28.1612 111.494 28.2308 111.334 28.37 111.2C28.5121 111.067 28.6811 111 28.8771 111C29.0732 111 29.2408 111.067 29.38 111.2C29.522 111.334 29.593 111.494 29.593 111.682C29.593 111.869 29.522 112.03 29.38 112.163C29.2408 112.297 29.0732 112.364 28.8771 112.364ZM36.5657 113.455L34.1452 120H33.1225L30.7021 113.455H31.793L33.5998 118.67H33.668L35.4748 113.455H36.5657ZM40.4031 120.136C39.7724 120.136 39.2283 119.997 38.771 119.719C38.3164 119.438 37.9656 119.045 37.7184 118.543C37.4741 118.037 37.3519 117.449 37.3519 116.778C37.3519 116.108 37.4741 115.517 37.7184 115.006C37.9656 114.491 38.3093 114.091 38.7496 113.804C39.1928 113.514 39.7099 113.369 40.3008 113.369C40.6417 113.369 40.9783 113.426 41.3107 113.54C41.6431 113.653 41.9457 113.838 42.2184 114.094C42.4911 114.347 42.7085 114.682 42.8704 115.099C43.0323 115.517 43.1133 116.031 43.1133 116.642V117.068H38.0678V116.199H42.0906C42.0906 115.83 42.0167 115.5 41.869 115.21C41.7241 114.92 41.5167 114.692 41.2468 114.524C40.9798 114.357 40.6644 114.273 40.3008 114.273C39.9002 114.273 39.5536 114.372 39.261 114.571C38.9712 114.767 38.7482 115.023 38.592 115.338C38.4357 115.653 38.3576 115.991 38.3576 116.352V116.932C38.3576 117.426 38.4428 117.845 38.6133 118.189C38.7866 118.53 39.0266 118.79 39.3335 118.969C39.6403 119.145 39.9968 119.233 40.4031 119.233C40.6673 119.233 40.9059 119.196 41.119 119.122C41.3349 119.045 41.521 118.932 41.6772 118.781C41.8335 118.628 41.9542 118.437 42.0394 118.21L43.011 118.483C42.9087 118.812 42.7369 119.102 42.4954 119.352C42.2539 119.599 41.9556 119.793 41.6005 119.932C41.2454 120.068 40.8462 120.136 40.4031 120.136ZM48.5124 120H47.4045L50.609 111.273H51.6999L54.9045 120H53.7965L51.1886 112.653H51.1204L48.5124 120ZM48.9215 116.591H53.3874V117.528H48.9215V116.591ZM56.2638 120V111.273H59.2127C59.8974 111.273 60.457 111.396 60.8917 111.643C61.3292 111.888 61.6531 112.219 61.8633 112.636C62.0735 113.054 62.1786 113.52 62.1786 114.034C62.1786 114.548 62.0735 115.016 61.8633 115.436C61.6559 115.857 61.3349 116.192 60.9002 116.442C60.4656 116.689 59.9087 116.812 59.2298 116.812H57.1161V115.875H59.1957C59.6644 115.875 60.0408 115.794 60.3249 115.632C60.609 115.47 60.815 115.251 60.9428 114.976C61.0735 114.697 61.1388 114.384 61.1388 114.034C61.1388 113.685 61.0735 113.372 60.9428 113.097C60.815 112.821 60.6076 112.605 60.3207 112.449C60.0337 112.29 59.6531 112.21 59.1786 112.21H57.3207V120H56.2638ZM64.9379 111.273V120H63.881V111.273H64.9379ZM1.90696 135H0.799006L4.00355 126.273H5.09446L8.29901 135H7.19105L4.5831 127.653H4.51491L1.90696 135ZM2.31605 131.591H6.78196V132.528H2.31605V131.591ZM9.65838 135V126.273H10.6641V129.494H10.7493C10.8232 129.381 10.9254 129.236 11.0561 129.06C11.1896 128.881 11.38 128.722 11.6271 128.582C11.8771 128.44 12.2152 128.369 12.6413 128.369C13.1925 128.369 13.6783 128.507 14.0987 128.783C14.5192 129.058 14.8473 129.449 15.0831 129.955C15.3189 130.46 15.4368 131.057 15.4368 131.744C15.4368 132.438 15.3189 133.038 15.0831 133.547C14.8473 134.053 14.5206 134.445 14.103 134.723C13.6854 134.999 13.2038 135.136 12.6584 135.136C12.2379 135.136 11.9013 135.067 11.6484 134.928C11.3956 134.786 11.201 134.625 11.0646 134.446C10.9283 134.264 10.8232 134.114 10.7493 133.994H10.63V135H9.65838ZM10.647 131.727C10.647 132.222 10.7195 132.658 10.8643 133.036C11.0092 133.411 11.2209 133.705 11.4993 133.918C11.7777 134.128 12.1186 134.233 12.522 134.233C12.9425 134.233 13.2933 134.122 13.5746 133.901C13.8587 133.676 14.0717 133.375 14.2138 132.997C14.3587 132.616 14.4311 132.193 14.4311 131.727C14.4311 131.267 14.3601 130.852 14.218 130.483C14.0788 130.111 13.8672 129.817 13.5831 129.601C13.3018 129.382 12.9482 129.273 12.522 129.273C12.1129 129.273 11.7692 129.376 11.4908 129.584C11.2124 129.788 11.0021 130.075 10.8601 130.445C10.718 130.811 10.647 131.239 10.647 131.727ZM21.6115 129.92L20.7081 130.176C20.6513 130.026 20.5675 129.879 20.4567 129.737C20.3487 129.592 20.201 129.473 20.0135 129.379C19.826 129.286 19.5859 129.239 19.2933 129.239C18.8928 129.239 18.5589 129.331 18.2919 129.516C18.0277 129.697 17.8956 129.929 17.8956 130.21C17.8956 130.46 17.9865 130.658 18.1683 130.803C18.3501 130.947 18.6342 131.068 19.0206 131.165L19.9922 131.403C20.5774 131.545 21.0135 131.763 21.3004 132.055C21.5874 132.345 21.7308 132.719 21.7308 133.176C21.7308 133.551 21.6229 133.886 21.407 134.182C21.1939 134.477 20.8956 134.71 20.5121 134.881C20.1286 135.051 19.6825 135.136 19.174 135.136C18.5064 135.136 17.9538 134.991 17.5163 134.702C17.0788 134.412 16.8018 133.989 16.6854 133.432L17.6399 133.193C17.7308 133.545 17.9027 133.81 18.1555 133.986C18.4112 134.162 18.745 134.25 19.157 134.25C19.6257 134.25 19.9979 134.151 20.2734 133.952C20.5518 133.75 20.6911 133.509 20.6911 133.227C20.6911 133 20.6115 132.81 20.4524 132.656C20.2933 132.5 20.049 132.384 19.7195 132.307L18.6286 132.051C18.0291 131.909 17.5888 131.689 17.3075 131.391C17.0291 131.089 16.8899 130.713 16.8899 130.261C16.8899 129.892 16.9936 129.565 17.201 129.281C17.4112 128.997 17.6967 128.774 18.0575 128.612C18.4212 128.45 18.8331 128.369 19.2933 128.369C19.9411 128.369 20.4496 128.511 20.8189 128.795C21.1911 129.08 21.4553 129.455 21.6115 129.92ZM26.0913 128.455V129.307H22.6992V128.455H26.0913ZM23.6879 126.886H24.6935V133.125C24.6935 133.409 24.7347 133.622 24.8171 133.764C24.9023 133.903 25.0103 133.997 25.141 134.045C25.2745 134.091 25.4151 134.114 25.5629 134.114C25.6737 134.114 25.7646 134.108 25.8356 134.097C25.9066 134.082 25.9634 134.071 26.006 134.062L26.2106 134.966C26.1424 134.991 26.0472 135.017 25.9251 135.043C25.8029 135.071 25.6481 135.085 25.4606 135.085C25.1765 135.085 24.8981 135.024 24.6254 134.902C24.3555 134.78 24.131 134.594 23.9521 134.344C23.7759 134.094 23.6879 133.778 23.6879 133.398V126.886ZM27.604 135V128.455H28.5756V129.443H28.6438C28.7631 129.119 28.979 128.857 29.2915 128.655C29.604 128.453 29.9563 128.352 30.3484 128.352C30.4222 128.352 30.5146 128.354 30.6254 128.357C30.7362 128.359 30.82 128.364 30.8768 128.369V129.392C30.8427 129.384 30.7646 129.371 30.6424 129.354C30.5231 129.334 30.3967 129.324 30.2631 129.324C29.945 129.324 29.6609 129.391 29.4109 129.524C29.1637 129.655 28.9677 129.837 28.8228 130.07C28.6808 130.3 28.6097 130.562 28.6097 130.858V135H27.604ZM33.995 135.153C33.5803 135.153 33.2038 135.075 32.8658 134.919C32.5277 134.76 32.2592 134.531 32.0604 134.233C31.8615 133.932 31.7621 133.568 31.7621 133.142C31.7621 132.767 31.8359 132.463 31.9837 132.23C32.1314 131.994 32.3288 131.81 32.576 131.676C32.8232 131.543 33.0959 131.443 33.3942 131.378C33.6953 131.31 33.9979 131.256 34.3018 131.216C34.6996 131.165 35.022 131.126 35.2692 131.101C35.5192 131.072 35.701 131.026 35.8146 130.96C35.9311 130.895 35.9893 130.781 35.9893 130.619V130.585C35.9893 130.165 35.8743 129.838 35.6442 129.605C35.4169 129.372 35.0717 129.256 34.6087 129.256C34.1286 129.256 33.7521 129.361 33.4794 129.571C33.2067 129.781 33.0149 130.006 32.9041 130.244L31.9496 129.903C32.12 129.506 32.3473 129.196 32.6314 128.974C32.9183 128.75 33.2308 128.594 33.5689 128.506C33.9098 128.415 34.245 128.369 34.5746 128.369C34.7848 128.369 35.0263 128.395 35.299 128.446C35.5746 128.494 35.8402 128.595 36.0959 128.749C36.3544 128.902 36.5689 129.134 36.7393 129.443C36.9098 129.753 36.995 130.168 36.995 130.688V135H35.9893V134.114H35.9382C35.87 134.256 35.7564 134.408 35.5973 134.57C35.4382 134.732 35.2266 134.869 34.9624 134.983C34.6982 135.097 34.3757 135.153 33.995 135.153ZM34.1484 134.25C34.5462 134.25 34.8814 134.172 35.1541 134.016C35.4297 133.859 35.6371 133.658 35.7763 133.411C35.9183 133.163 35.9893 132.903 35.9893 132.631V131.71C35.9467 131.761 35.853 131.808 35.7081 131.851C35.5661 131.891 35.4013 131.926 35.2138 131.957C35.0291 131.986 34.8487 132.011 34.6726 132.034C34.4993 132.054 34.3587 132.071 34.2507 132.085C33.9893 132.119 33.745 132.175 33.5178 132.251C33.2933 132.325 33.1115 132.437 32.9723 132.588C32.8359 132.736 32.7678 132.937 32.7678 133.193C32.7678 133.543 32.897 133.807 33.1555 133.986C33.4169 134.162 33.7479 134.25 34.1484 134.25ZM41.4897 135.136C40.8761 135.136 40.3477 134.991 39.9045 134.702C39.4613 134.412 39.1204 134.013 38.8817 133.504C38.6431 132.996 38.5238 132.415 38.5238 131.761C38.5238 131.097 38.646 130.51 38.8903 130.001C39.1374 129.49 39.4812 129.091 39.9215 128.804C40.3647 128.514 40.8817 128.369 41.4727 128.369C41.9329 128.369 42.3477 128.455 42.717 128.625C43.0863 128.795 43.3888 129.034 43.6246 129.341C43.8604 129.648 44.0067 130.006 44.0636 130.415H43.0579C42.9812 130.116 42.8107 129.852 42.5465 129.622C42.2852 129.389 41.9329 129.273 41.4897 129.273C41.0977 129.273 40.7539 129.375 40.4585 129.58C40.1658 129.781 39.9371 130.067 39.7724 130.436C39.6104 130.803 39.5295 131.233 39.5295 131.727C39.5295 132.233 39.609 132.673 39.7681 133.048C39.93 133.423 40.1573 133.714 40.4499 133.922C40.7454 134.129 41.092 134.233 41.4897 134.233C41.7511 134.233 41.9883 134.188 42.2013 134.097C42.4144 134.006 42.5948 133.875 42.7425 133.705C42.8903 133.534 42.9954 133.33 43.0579 133.091H44.0636C44.0067 133.477 43.8661 133.825 43.6417 134.135C43.4201 134.442 43.1261 134.686 42.7596 134.868C42.396 135.047 41.9727 135.136 41.4897 135.136ZM48.3803 128.455V129.307H44.9883V128.455H48.3803ZM45.9769 126.886H46.9826V133.125C46.9826 133.409 47.0238 133.622 47.1062 133.764C47.1914 133.903 47.2994 133.997 47.43 134.045C47.5636 134.091 47.7042 134.114 47.8519 134.114C47.9627 134.114 48.0536 134.108 48.1246 134.097C48.1957 134.082 48.2525 134.071 48.2951 134.062L48.4996 134.966C48.4315 134.991 48.3363 135.017 48.2141 135.043C48.092 135.071 47.9371 135.085 47.7496 135.085C47.4656 135.085 47.1871 135.024 46.9144 134.902C46.6445 134.78 46.4201 134.594 46.2411 134.344C46.065 134.094 45.9769 133.778 45.9769 133.398V126.886ZM49.8931 135V128.455H50.8988V135H49.8931ZM50.4045 127.364C50.2085 127.364 50.0394 127.297 49.8974 127.163C49.7582 127.03 49.6886 126.869 49.6886 126.682C49.6886 126.494 49.7582 126.334 49.8974 126.2C50.0394 126.067 50.2085 126 50.4045 126C50.6005 126 50.7681 126.067 50.9073 126.2C51.0494 126.334 51.1204 126.494 51.1204 126.682C51.1204 126.869 51.0494 127.03 50.9073 127.163C50.7681 127.297 50.6005 127.364 50.4045 127.364ZM55.3999 135.136C54.8089 135.136 54.2905 134.996 53.8445 134.714C53.4013 134.433 53.0547 134.04 52.8047 133.534C52.5575 133.028 52.4339 132.437 52.4339 131.761C52.4339 131.08 52.5575 130.484 52.8047 129.976C53.0547 129.467 53.4013 129.072 53.8445 128.791C54.2905 128.51 54.8089 128.369 55.3999 128.369C55.9908 128.369 56.5078 128.51 56.951 128.791C57.397 129.072 57.7436 129.467 57.9908 129.976C58.2408 130.484 58.3658 131.08 58.3658 131.761C58.3658 132.437 58.2408 133.028 57.9908 133.534C57.7436 134.04 57.397 134.433 56.951 134.714C56.5078 134.996 55.9908 135.136 55.3999 135.136ZM55.3999 134.233C55.8487 134.233 56.218 134.118 56.5078 133.888C56.7976 133.658 57.0121 133.355 57.1513 132.98C57.2905 132.605 57.3601 132.199 57.3601 131.761C57.3601 131.324 57.2905 130.916 57.1513 130.538C57.0121 130.161 56.7976 129.855 56.5078 129.622C56.218 129.389 55.8487 129.273 55.3999 129.273C54.951 129.273 54.5817 129.389 54.2919 129.622C54.0021 129.855 53.7876 130.161 53.6484 130.538C53.5092 130.916 53.4396 131.324 53.4396 131.761C53.4396 132.199 53.5092 132.605 53.6484 132.98C53.7876 133.355 54.0021 133.658 54.2919 133.888C54.5817 134.118 54.951 134.233 55.3999 134.233ZM60.9066 131.062V135H59.9009V128.455H60.8725V129.477H60.9577C61.1112 129.145 61.3441 128.878 61.6566 128.676C61.9691 128.472 62.3725 128.369 62.8668 128.369C63.31 128.369 63.6978 128.46 64.0302 128.642C64.3626 128.821 64.6211 129.094 64.8058 129.46C64.9904 129.824 65.0827 130.284 65.0827 130.841V135H64.0771V130.909C64.0771 130.395 63.9435 129.994 63.6765 129.707C63.4094 129.418 63.043 129.273 62.5771 129.273C62.256 129.273 61.9691 129.342 61.7163 129.482C61.4663 129.621 61.2688 129.824 61.1239 130.091C60.979 130.358 60.9066 130.682 60.9066 131.062Z" fill="black"/>
<path d="M11.9318 207V198.273H12.9886V202.159H17.642V198.273H18.6989V207H17.642V203.097H12.9886V207H11.9318ZM22.6044 207.153C22.1896 207.153 21.8132 207.075 21.4751 206.919C21.1371 206.76 20.8686 206.531 20.6697 206.233C20.4709 205.932 20.3714 205.568 20.3714 205.142C20.3714 204.767 20.4453 204.463 20.593 204.23C20.7408 203.994 20.9382 203.81 21.1854 203.676C21.4325 203.543 21.7053 203.443 22.0036 203.378C22.3047 203.31 22.6072 203.256 22.9112 203.216C23.3089 203.165 23.6314 203.126 23.8786 203.101C24.1286 203.072 24.3104 203.026 24.424 202.96C24.5405 202.895 24.5987 202.781 24.5987 202.619V202.585C24.5987 202.165 24.4837 201.838 24.2536 201.605C24.0263 201.372 23.6811 201.256 23.218 201.256C22.7379 201.256 22.3615 201.361 22.0888 201.571C21.8161 201.781 21.6243 202.006 21.5135 202.244L20.5589 201.903C20.7294 201.506 20.9567 201.196 21.2408 200.974C21.5277 200.75 21.8402 200.594 22.1783 200.506C22.5192 200.415 22.8544 200.369 23.1839 200.369C23.3942 200.369 23.6357 200.395 23.9084 200.446C24.1839 200.494 24.4496 200.595 24.7053 200.749C24.9638 200.902 25.1783 201.134 25.3487 201.443C25.5192 201.753 25.6044 202.168 25.6044 202.688V207H24.5987V206.114H24.5476C24.4794 206.256 24.3658 206.408 24.2067 206.57C24.0476 206.732 23.8359 206.869 23.5717 206.983C23.3075 207.097 22.9851 207.153 22.6044 207.153ZM22.7578 206.25C23.1555 206.25 23.4908 206.172 23.7635 206.016C24.0391 205.859 24.2464 205.658 24.3857 205.411C24.5277 205.163 24.5987 204.903 24.5987 204.631V203.71C24.5561 203.761 24.4624 203.808 24.3175 203.851C24.1754 203.891 24.0107 203.926 23.8232 203.957C23.6385 203.986 23.4581 204.011 23.282 204.034C23.1087 204.054 22.968 204.071 22.8601 204.085C22.5987 204.119 22.3544 204.175 22.1271 204.251C21.9027 204.325 21.7209 204.437 21.5817 204.588C21.4453 204.736 21.3771 204.937 21.3771 205.193C21.3771 205.543 21.5064 205.807 21.7649 205.986C22.0263 206.162 22.3572 206.25 22.7578 206.25ZM27.44 207V200.455H28.4116V201.443H28.4798C28.5991 201.119 28.815 200.857 29.1275 200.655C29.44 200.453 29.7923 200.352 30.1843 200.352C30.2582 200.352 30.3505 200.354 30.4613 200.357C30.5721 200.359 30.6559 200.364 30.7127 200.369V201.392C30.6786 201.384 30.6005 201.371 30.4783 201.354C30.359 201.334 30.2326 201.324 30.0991 201.324C29.7809 201.324 29.4968 201.391 29.2468 201.524C28.9996 201.655 28.8036 201.837 28.6587 202.07C28.5167 202.3 28.4457 202.562 28.4457 202.858V207H27.44ZM34.1772 207.136C33.6317 207.136 33.1502 206.999 32.7326 206.723C32.315 206.445 31.9883 206.053 31.7525 205.547C31.5167 205.038 31.3988 204.438 31.3988 203.744C31.3988 203.057 31.5167 202.46 31.7525 201.955C31.9883 201.449 32.3164 201.058 32.7369 200.783C33.1573 200.507 33.6431 200.369 34.1942 200.369C34.6204 200.369 34.957 200.44 35.2042 200.582C35.4542 200.722 35.6445 200.881 35.7752 201.06C35.9087 201.236 36.0124 201.381 36.0863 201.494H36.1715V198.273H37.1772V207H36.2056V205.994H36.0863C36.0124 206.114 35.9073 206.264 35.771 206.446C35.6346 206.625 35.44 206.786 35.1871 206.928C34.9343 207.067 34.5977 207.136 34.1772 207.136ZM34.3136 206.233C34.717 206.233 35.0579 206.128 35.3363 205.918C35.6147 205.705 35.8263 205.411 35.9712 205.036C36.1161 204.658 36.1886 204.222 36.1886 203.727C36.1886 203.239 36.1175 202.811 35.9755 202.445C35.8335 202.075 35.6232 201.788 35.3448 201.584C35.0664 201.376 34.7227 201.273 34.3136 201.273C33.8874 201.273 33.5323 201.382 33.2482 201.601C32.967 201.817 32.7553 202.111 32.6133 202.483C32.4741 202.852 32.4045 203.267 32.4045 203.727C32.4045 204.193 32.4755 204.616 32.6175 204.997C32.7624 205.375 32.9755 205.676 33.2567 205.901C33.5408 206.122 33.8931 206.233 34.3136 206.233ZM40.6417 207L38.6474 200.455H39.7042L41.119 205.466H41.1871L42.5849 200.455H43.6587L45.0394 205.449H45.1076L46.5224 200.455H47.5792L45.5849 207H44.5962L43.1644 201.972H43.0621L41.6303 207H40.6417ZM50.8349 207.153C50.4201 207.153 50.0437 207.075 49.7056 206.919C49.3675 206.76 49.0991 206.531 48.9002 206.233C48.7013 205.932 48.6019 205.568 48.6019 205.142C48.6019 204.767 48.6758 204.463 48.8235 204.23C48.9712 203.994 49.1687 203.81 49.4158 203.676C49.663 203.543 49.9357 203.443 50.234 203.378C50.5352 203.31 50.8377 203.256 51.1417 203.216C51.5394 203.165 51.8619 203.126 52.109 203.101C52.359 203.072 52.5408 203.026 52.6545 202.96C52.771 202.895 52.8292 202.781 52.8292 202.619V202.585C52.8292 202.165 52.7141 201.838 52.484 201.605C52.2567 201.372 51.9116 201.256 51.4485 201.256C50.9684 201.256 50.592 201.361 50.3192 201.571C50.0465 201.781 49.8548 202.006 49.744 202.244L48.7894 201.903C48.9599 201.506 49.1871 201.196 49.4712 200.974C49.7582 200.75 50.0707 200.594 50.4087 200.506C50.7496 200.415 51.0849 200.369 51.4144 200.369C51.6246 200.369 51.8661 200.395 52.1388 200.446C52.4144 200.494 52.68 200.595 52.9357 200.749C53.1942 200.902 53.4087 201.134 53.5792 201.443C53.7496 201.753 53.8349 202.168 53.8349 202.688V207H52.8292V206.114H52.7781C52.7099 206.256 52.5962 206.408 52.4371 206.57C52.2781 206.732 52.0664 206.869 51.8022 206.983C51.538 207.097 51.2156 207.153 50.8349 207.153ZM50.9883 206.25C51.386 206.25 51.7212 206.172 51.994 206.016C52.2695 205.859 52.4769 205.658 52.6161 205.411C52.7582 205.163 52.8292 204.903 52.8292 204.631V203.71C52.7866 203.761 52.6928 203.808 52.5479 203.851C52.4059 203.891 52.2411 203.926 52.0536 203.957C51.869 203.986 51.6886 204.011 51.5124 204.034C51.3391 204.054 51.1985 204.071 51.0906 204.085C50.8292 204.119 50.5849 204.175 50.3576 204.251C50.1332 204.325 49.9513 204.437 49.8121 204.588C49.6758 204.736 49.6076 204.937 49.6076 205.193C49.6076 205.543 49.7369 205.807 49.9954 205.986C50.2567 206.162 50.5877 206.25 50.9883 206.25ZM55.6705 207V200.455H56.642V201.443H56.7102C56.8295 201.119 57.0455 200.857 57.358 200.655C57.6705 200.453 58.0227 200.352 58.4148 200.352C58.4886 200.352 58.581 200.354 58.6918 200.357C58.8026 200.359 58.8864 200.364 58.9432 200.369V201.392C58.9091 201.384 58.831 201.371 58.7088 201.354C58.5895 201.334 58.4631 201.324 58.3295 201.324C58.0114 201.324 57.7273 201.391 57.4773 201.524C57.2301 201.655 57.0341 201.837 56.8892 202.07C56.7472 202.3 56.6761 202.562 56.6761 202.858V207H55.6705ZM62.6804 207.136C62.0497 207.136 61.5057 206.997 61.0483 206.719C60.5938 206.438 60.2429 206.045 59.9957 205.543C59.7514 205.037 59.6293 204.449 59.6293 203.778C59.6293 203.108 59.7514 202.517 59.9957 202.006C60.2429 201.491 60.5866 201.091 61.027 200.804C61.4702 200.514 61.9872 200.369 62.5781 200.369C62.919 200.369 63.2557 200.426 63.5881 200.54C63.9205 200.653 64.223 200.838 64.4957 201.094C64.7685 201.347 64.9858 201.682 65.1477 202.099C65.3097 202.517 65.3906 203.031 65.3906 203.642V204.068H60.3452V203.199H64.3679C64.3679 202.83 64.294 202.5 64.1463 202.21C64.0014 201.92 63.794 201.692 63.5241 201.524C63.2571 201.357 62.9418 201.273 62.5781 201.273C62.1776 201.273 61.831 201.372 61.5384 201.571C61.2486 201.767 61.0256 202.023 60.8693 202.338C60.7131 202.653 60.6349 202.991 60.6349 203.352V203.932C60.6349 204.426 60.7202 204.845 60.8906 205.189C61.0639 205.53 61.304 205.79 61.6108 205.969C61.9176 206.145 62.2741 206.233 62.6804 206.233C62.9446 206.233 63.1832 206.196 63.3963 206.122C63.6122 206.045 63.7983 205.932 63.9545 205.781C64.1108 205.628 64.2315 205.437 64.3168 205.21L65.2884 205.483C65.1861 205.812 65.0142 206.102 64.7727 206.352C64.5313 206.599 64.233 206.793 63.8778 206.932C63.5227 207.068 63.1236 207.136 62.6804 207.136Z" fill="black"/>
</svg>
